<svg width="1707" height="600" viewBox="0 0 1707 600" fill="none" xmlns="http://www.w3.org/2000/svg">
<path d="M842.031 13.4134L838.164 27.3342H824.828H811.625L821.494 13.9354C831.496 0.536671 830.162 1.58068 816.159 18.4596L808.825 27.3342L795.489 27.1601C782.953 27.1601 782.419 26.9861 785.887 24.55C787.887 23.1579 789.488 21.5918 789.488 21.0698C789.488 20.5478 787.354 21.7658 784.687 23.6799C779.352 27.8562 783.886 27.5082 721.474 27.1601C707.872 26.9861 695.603 26.9861 694.136 26.9861C692.669 26.9861 674.665 26.9861 654.128 26.9861C633.59 26.9861 615.32 26.8121 613.453 26.9861C611.586 26.9861 584.648 27.1602 553.441 27.5082L496.764 28.0302L544.773 29.0743C571.178 29.5963 591.315 30.2923 589.448 30.4663C587.581 30.8144 586.781 31.3363 587.448 31.8584C588.248 32.2064 594.516 31.5104 601.584 30.2923C616.787 27.8562 680.666 28.2042 677.466 30.8144C674.932 32.9025 675.065 32.9025 686.134 30.2923C691.868 29.0743 703.737 28.3782 716.807 28.7262C736.544 29.2483 737.877 29.4222 734.81 31.8584C732.543 33.5985 732.41 34.1205 734.143 33.4245C742.545 29.5962 746.812 29.0743 760.815 29.4223L776.418 29.9443L759.082 42.473L741.878 55.1757L717.34 55.0017H692.802L711.872 45.2571C722.274 39.8628 730.676 35.1646 730.409 34.8165C730.143 34.4685 720.407 38.9928 708.672 44.7351L687.468 55.1757L650.394 54.8277L613.32 54.3057L644.126 44.0391C660.929 38.2968 674.532 33.4245 674.265 33.0764C673.998 32.7284 658.262 37.4267 639.191 43.6911L604.518 55.1757L547.974 55.0017L491.429 54.8277L538.639 44.2131C564.644 38.2968 585.181 33.2505 584.514 33.0764C583.714 32.7284 559.709 37.6007 531.17 43.8651L479.16 55.1757L394.61 54.8277L310.061 54.3057L336.066 50.4774C414.748 38.9928 451.155 33.4245 448.754 32.9024C447.287 32.7284 411.147 37.6007 368.472 43.8651L290.99 55.1757L162.432 55.0017C91.7512 54.8277 35.2069 54.4797 36.6738 54.1316C38.1408 53.9576 78.4153 49.9554 126.025 45.2571C173.767 40.7329 211.108 36.7307 209.241 36.3826C207.24 36.0346 180.835 38.2968 150.563 41.2549C43.2084 51.6955 24.5381 53.4356 12.2691 54.4797C-20.1373 57.6118 10.6688 58.6559 131.092 58.8299C244.981 59.0039 260.184 59.3519 247.382 61.266C208.307 67.3564 4.00078 96.938 2.13375 96.938C0.933516 96.938 0 97.6341 0 98.6781C0 99.8962 45.7423 100.418 134.426 100.592C208.307 100.592 268.186 100.94 267.386 101.288C265.785 102.158 3.6007 159.581 1.46695 159.581C0.666797 159.581 0 160.8 0 162.192C0 164.454 16.1365 164.802 134.293 165.15C261.384 165.672 268.186 165.846 260.051 168.456C255.25 170.022 195.105 189.859 126.425 212.48C57.7446 235.102 1.06688 253.547 0.666797 253.547C0.266719 253.547 0 255.113 0 257.027C0 260.507 1.06687 260.507 134.96 260.855L270.053 261.377L260.718 266.075C255.517 268.686 238.847 277.038 223.377 284.52C171.767 309.926 103.754 343.684 55.3441 367.523C28.939 380.748 5.73445 392.232 3.73406 393.102C0.800156 394.495 0 395.887 0 399.889V404.935L132.159 405.283L264.318 405.805L132.693 502.381L1.20023 598.956L11.6023 599.478L22.0043 600L151.363 502.381L280.721 404.935H388.476C484.095 404.935 501.165 405.457 495.03 408.763C494.363 408.937 460.89 449.308 420.615 498.03C380.341 546.927 345.001 589.907 342.067 593.388L336.732 599.652H348.068H359.404L436.085 502.381L512.767 404.935H621.321C724.008 404.935 729.742 405.109 728.809 407.893C728.276 409.633 716.273 451.744 702.004 501.511C687.734 551.277 675.465 593.736 674.798 595.824C673.598 599.826 673.598 599.826 684.667 599.826H696.003L717.874 512.473C730.009 464.272 740.945 420.422 742.278 414.854L744.679 404.935H853.5H962.321L964.722 414.854C966.055 420.422 976.991 464.272 989.127 512.299L1011 599.826H1022.33C1028.6 599.826 1033.4 599.304 1033.14 598.434C1032.73 597.738 1020.47 555.28 1005.8 504.121C991.127 452.962 978.724 409.633 978.191 407.893C977.258 405.109 982.992 404.935 1085.68 404.935H1194.23L1270.91 502.381L1347.6 599.652H1358.93H1370.27L1361.87 589.733C1327.06 548.319 1211.04 407.197 1211.04 406.153C1210.9 405.457 1259.31 404.935 1318.66 404.935H1426.28L1555.64 502.381L1685 600L1695.4 599.478L1705.8 598.956L1574.31 502.381L1442.68 405.805L1574.84 405.283L1707 404.935V399.889C1707 395.887 1706.2 394.495 1703.4 393.102C1701.27 392.232 1662.19 372.743 1616.32 350.122C1570.44 327.501 1519.76 302.443 1503.63 294.439C1487.49 286.435 1466.29 275.994 1456.42 271.122C1446.55 266.249 1438.15 261.899 1437.88 261.377C1437.48 260.855 1497.89 260.507 1572.04 260.507C1706.07 260.507 1707 260.507 1707 257.027C1707 255.113 1706.73 253.547 1706.33 253.547C1705.93 253.547 1649.26 235.102 1580.58 212.48C1511.9 189.859 1451.75 170.022 1446.95 168.456C1438.81 165.846 1445.62 165.672 1572.71 165.15C1690.86 164.802 1707 164.454 1707 162.192C1707 160.8 1706.33 159.581 1705.53 159.581C1703.27 159.581 1441.21 102.158 1439.61 101.288C1438.95 100.94 1498.69 100.592 1572.71 100.592C1661.26 100.418 1707 99.8962 1707 98.6781C1707 97.6341 1706.07 96.938 1704.87 96.938C1703 96.938 1498.69 67.3564 1459.62 61.266C1446.82 59.3519 1462.02 59.0039 1576.04 58.8299C1696.33 58.6559 1727.14 57.6118 1694.73 54.4797C1682.46 53.4356 1663.79 51.6955 1556.44 41.2549C1526.16 38.2968 1499.76 36.0346 1497.76 36.3826C1495.89 36.7307 1533.37 40.7329 1580.98 45.2571C1628.72 49.9554 1668.86 53.9576 1670.33 54.1316C1671.79 54.4797 1615.25 54.8277 1544.57 55.0017L1416.01 55.1757L1338.53 43.8651C1295.85 37.6007 1259.71 32.7284 1258.25 32.9024C1255.85 33.4245 1292.25 38.9928 1370.93 50.4774L1396.94 54.3057L1312.39 54.8277L1227.84 55.1757L1175.83 43.8651C1147.29 37.6007 1123.29 32.7284 1122.49 33.0764C1121.82 33.2505 1142.36 38.2968 1168.36 44.2131L1215.57 54.8277L1158.89 55.0017L1102.22 55.1757L1065.81 43.1691C1045.67 36.5567 1029 30.6404 1028.6 30.1183C1027 28.0302 1092.88 28.2042 1105.42 30.2923C1112.48 31.5104 1118.89 32.2064 1119.55 31.8584C1120.35 31.3363 1119.42 30.8144 1117.55 30.4663C1115.68 30.2923 1135.82 29.5963 1162.23 29.0743L1210.24 28.0302L1153.56 27.5082C1122.35 27.1602 1095.41 26.9861 1093.55 26.9861C1091.68 26.8121 1073.41 26.9861 1052.87 26.9861C1032.33 26.9861 1014.33 26.9861 1012.86 26.9861C1011.4 26.9861 999.128 26.9861 985.526 27.1601C923.114 27.5082 927.648 27.8562 922.313 23.6799C919.646 21.7658 917.512 20.5478 917.512 21.0698C917.512 21.5918 919.113 23.1579 921.247 24.55C924.581 26.9861 924.047 27.1601 911.511 27.1601L898.175 27.3342L890.841 18.4596C876.838 1.58068 875.504 0.536671 885.506 13.9354L895.375 27.3342H882.172H868.836L864.969 13.4134C862.835 5.58295 860.968 -0.333379 860.568 0.0146406C860.301 0.53667 861.635 6.453 863.502 13.5874C865.369 20.5478 866.836 26.4641 866.836 26.8121C866.836 27.1601 860.835 27.3342 853.5 27.3342C846.165 27.3342 840.164 27.1601 840.164 26.8121C840.164 26.4641 841.631 20.5478 843.498 13.5874C845.365 6.453 846.699 0.53667 846.432 0.0146406C846.032 -0.333379 844.165 5.58295 842.031 13.4134ZM1060.61 43.1691L1093.68 54.3057L1056.61 54.8277L1019.53 55.1757L998.328 44.7351C986.593 38.9928 976.857 34.4685 976.591 34.8165C976.324 35.1646 984.726 39.8628 995.128 45.2571L1014.2 55.0017H989.66L965.122 55.1757L950.319 44.3871C942.184 38.4708 934.316 32.7284 932.982 31.5103C930.848 29.5962 937.65 29.2483 970.189 29.2483C992.06 29.2483 1010.2 28.9003 1010.46 28.5522C1011.4 27.3342 1026.6 31.6844 1060.61 43.1691ZM796.822 42.125L786.154 55.0017L765.483 55.1757H744.812L762.149 42.125L779.486 29.2483H793.488H807.491L796.822 42.125ZM833.763 42.125L830.162 55.1757H809.491L788.821 55.0017L799.223 42.125L809.758 29.0743H823.494H837.364L833.763 42.125ZM870.57 40.9069C872.17 47.5193 873.504 53.2616 873.504 53.9576C873.504 54.6537 864.569 55.1757 853.5 55.1757C842.565 55.1757 833.496 54.6537 833.496 53.9576C833.496 53.2616 834.83 47.5193 836.43 40.9069L839.364 29.0743H853.5H867.636L870.57 40.9069ZM907.777 42.125L918.179 55.0017L897.509 55.1757H876.838L873.237 42.125L869.637 29.0743H883.506H897.242L907.777 42.125ZM944.851 42.125L962.188 55.1757H941.517L920.846 55.0017L910.178 42.125L899.509 29.2483H913.512H927.514L944.851 42.125ZM450.755 61.266C445.287 62.4841 406.613 71.0106 364.871 80.2331L288.99 96.938L158.831 96.764L28.6723 96.59L61.3453 91.5437C79.3488 88.9336 104.554 85.1053 117.356 83.1912C130.159 81.1031 167.366 75.7088 200.039 70.8366C232.712 66.1383 262.985 61.4401 267.386 60.57C271.786 59.7 317.129 59.1779 368.072 59.0039C448.088 59.0039 459.423 59.3519 450.755 61.266ZM535.438 77.7969L478.093 96.938L391.41 96.764L304.726 96.59L326.064 91.7177C337.799 88.9336 358.47 84.2353 372.073 81.2772C385.675 78.319 413.281 72.0546 433.418 67.3564L470.092 59.0039H531.437L592.782 58.8299L535.438 77.7969ZM678.666 59.3519C678.399 59.6999 661.329 68.2264 640.792 78.493L603.451 96.938L546.107 96.764C497.297 96.59 489.696 96.242 494.763 94.3279C498.097 93.1098 519.968 85.8014 543.439 77.7969C566.911 69.9665 588.782 62.4841 592.116 61.266C596.25 59.7 610.519 59.0039 638.658 58.8299C660.929 58.8299 678.933 59.0039 678.666 59.3519ZM736.01 59.3519C735.744 59.6999 724.141 68.2264 710.272 78.493L685.2 96.938L647.993 96.59L610.786 96.068L647.193 77.6229L683.467 59.0039L710.005 58.8299C724.675 58.6559 736.277 59.0039 736.01 59.3519ZM771.884 72.2286C765.75 79.8851 758.682 88.4115 755.881 91.5437L751.08 96.938L720.941 96.59L690.668 96.068L715.073 77.4489L739.478 59.0039L761.215 58.8299L782.953 58.6559L771.884 72.2286ZM823.628 77.7969L818.16 96.938H786.954H755.881L770.951 77.7969L786.154 58.8299L807.624 58.6559H829.095L823.628 77.7969ZM879.772 76.9269C882.172 86.4974 884.173 94.8499 884.173 95.546C884.173 96.416 870.437 96.938 853.5 96.938C836.697 96.938 822.827 96.416 822.827 95.894C822.827 94.6759 830.962 61.6141 831.762 59.874C832.029 59.1779 842.031 58.8299 853.9 59.0039L875.371 59.5259L879.772 76.9269ZM936.049 77.7969L951.119 96.938H920.046H888.84L883.373 77.7969L877.905 58.6559H899.376L920.846 58.8299L936.049 77.7969ZM991.394 77.2749L1016.33 96.068L986.059 96.59L955.92 96.938L951.119 91.5437C948.319 88.4115 941.251 79.8851 935.116 72.2286L924.047 58.6559H945.251H966.589L991.394 77.2749ZM1059.14 77.2749L1096.21 96.068L1059.01 96.59L1021.8 96.938L996.728 78.493C982.859 68.2264 971.256 59.6999 970.99 59.3519C970.723 59.0039 982.058 58.6559 996.195 58.6559H1022.07L1059.14 77.2749ZM1116.62 61.9621C1121.82 63.8762 1144.22 71.3586 1166.23 78.841C1188.23 86.1494 1208.9 93.1098 1212.24 94.3279C1217.3 96.242 1209.7 96.59 1160.89 96.764L1103.55 96.938L1066.21 78.493C1045.67 68.2264 1028.6 59.6999 1028.33 59.3519C1028.07 59.0039 1045.54 58.6559 1067.41 58.6559C1102.22 58.6559 1108.08 59.0039 1116.62 61.9621ZM1295.99 72.5767C1330.26 80.2331 1368.13 88.7596 1380.27 91.5437L1402.27 96.59L1315.59 96.764L1228.91 96.938L1171.56 77.7969L1114.22 58.8299H1173.96L1233.71 58.6559L1295.99 72.5767ZM1471.62 65.2683C1508.03 71.0106 1572.84 80.7551 1638.85 90.3256L1678.19 96.068L1548.17 96.59L1418.28 96.938L1342.26 80.2331C1300.52 71.0106 1261.71 62.4841 1256.25 61.266C1247.58 59.3519 1259.45 59.0039 1341.6 59.3519L1436.95 59.7L1471.62 65.2683ZM463.957 101.114C463.691 101.462 423.683 114.861 375.14 130.696L286.989 159.581L155.764 159.407C83.7497 159.233 26.1384 158.711 28.0055 158.363C29.8725 158.015 88.0172 144.791 157.364 129.13L283.389 100.766L373.94 100.592C423.816 100.418 464.224 100.766 463.957 101.114ZM589.448 103.376C585.448 105.638 530.104 133.306 488.495 153.665L476.36 159.581L389.409 159.233L302.459 158.711L318.996 153.317C345.001 144.617 411.414 122.169 444.087 111.033L474.093 100.766H534.104C589.315 100.766 593.716 100.94 589.448 103.376ZM678.399 101.462C677.999 101.984 660.129 115.383 638.658 131.044L599.717 159.581L543.306 159.233L486.762 158.711L543.84 129.652L600.784 100.766L639.992 100.592C661.596 100.418 678.933 100.94 678.399 101.462ZM745.479 104.594C743.612 106.857 732.676 120.081 721.074 134.176L700.003 159.581H653.194H606.252L645.459 130L684.8 100.418H716.807H748.813L745.479 104.594ZM816.159 101.984C816.159 102.68 812.559 115.905 808.291 131.044L800.423 158.711L753.48 159.233L706.538 159.581L729.609 130.174L752.814 100.592L784.553 100.418C801.89 100.418 816.159 101.114 816.159 101.984ZM892.308 127.738C896.042 142.877 899.509 156.275 899.909 157.319C900.309 159.059 890.441 159.581 853.5 159.581C816.559 159.581 806.691 159.059 807.091 157.319C807.491 156.275 810.958 142.877 814.692 127.738L821.76 100.418H853.5H885.24L892.308 127.738ZM977.391 130.174L1000.46 159.581L953.52 159.233L906.577 158.711L898.709 131.044C894.441 115.905 890.841 102.68 890.841 101.984C890.841 101.114 905.11 100.418 922.58 100.418L954.186 100.592L977.391 130.174ZM1061.54 130L1100.75 159.581H1053.81H1007L985.926 134.176C974.324 120.081 963.388 106.857 961.521 104.594L958.187 100.418H990.193H1022.2L1061.54 130ZM1162.49 129.478L1220.24 158.711L1163.69 159.233L1107.28 159.581L1068.34 131.044C1046.87 115.383 1029 101.984 1028.6 101.462C1028.07 100.94 1045.14 100.418 1066.21 100.418H1104.75L1162.49 129.478ZM1262.65 111.033C1279.98 116.949 1311.32 127.564 1332.26 134.524C1353.2 141.659 1378 150.011 1387.34 152.969L1404.54 158.711L1317.59 159.233L1230.64 159.581L1218.5 153.665C1176.9 133.306 1121.55 105.638 1117.55 103.376C1113.28 100.94 1117.55 100.766 1171.96 100.592L1230.91 100.418L1262.65 111.033ZM1541.5 127.564C1607.91 142.529 1666.86 155.753 1672.33 156.971C1680.86 158.885 1663.26 159.233 1551.24 159.407L1420.01 159.581L1331.86 130.696C1283.32 114.861 1243.31 101.462 1243.04 101.114C1242.78 100.766 1282.52 100.418 1331.59 100.418H1420.68L1541.5 127.564ZM462.09 166.368C457.956 168.63 404.879 194.905 346.068 223.965C316.729 238.408 291.257 250.937 289.39 251.807C287.256 253.025 238.18 253.373 154.697 253.199L23.4712 252.677L35.3402 248.848C42.0082 246.586 57.878 241.366 70.6805 237.016C83.483 232.666 106.954 224.661 122.691 219.441C138.427 214.221 158.031 207.608 166.032 204.824C174.167 202.04 195.105 194.905 212.708 188.989C230.312 183.073 253.383 175.416 264.052 171.762L283.389 165.15L374.073 164.976C423.949 164.976 463.557 165.672 462.09 166.368ZM590.115 166.368C589.315 167.238 562.51 187.075 530.237 210.74L471.825 253.547L386.342 253.199L300.859 252.677L354.203 225.879C383.408 211.088 422.482 191.425 440.753 182.029L474.093 164.976H532.771C566.111 164.802 590.782 165.498 590.115 166.368ZM691.468 169.848C689.201 172.632 672.798 192.643 654.928 214.221L622.388 253.547H552.241C509.966 253.547 482.894 252.851 484.095 251.807C485.161 250.937 511.567 231.099 542.773 207.608L599.45 164.802H647.46H695.469L691.468 169.848ZM793.888 180.811C791.355 189.685 785.62 209.696 781.219 225.183L773.218 253.547H702.937L632.79 253.373L667.464 209.174L702.137 164.976L750.28 164.802H798.556L793.888 180.811ZM912.845 209.174L923.647 252.677L888.573 253.199C869.236 253.373 837.764 253.373 818.427 253.199L783.353 252.677L793.755 210.914C799.489 187.945 804.424 168.108 804.824 166.89C805.224 165.15 815.759 164.802 853.633 165.15L901.909 165.672L912.845 209.174ZM1039.54 209.174L1074.21 253.373L1004.06 253.547H933.782L925.781 225.183C921.38 209.696 915.646 189.685 913.112 180.811L908.444 164.802H956.72L1004.86 164.976L1039.54 209.174ZM1164.23 207.608C1195.43 231.099 1221.84 250.937 1222.91 251.807C1224.11 252.851 1197.03 253.547 1154.76 253.547H1084.61L1052.07 214.221C1034.2 192.643 1017.8 172.632 1015.53 169.848L1011.53 164.802H1059.54H1107.55L1164.23 207.608ZM1271.18 184.639C1292.65 195.428 1331.86 215.265 1358.13 228.489L1406.14 252.677L1320.66 253.199L1235.17 253.547L1176.76 210.74C1144.49 187.075 1117.68 167.238 1117.02 166.368C1116.22 165.498 1140.76 164.802 1173.83 164.802H1232.11L1271.18 184.639ZM1453.48 175.416C1470.82 181.159 1492.96 188.641 1502.69 191.947C1540.43 204.65 1556.7 210.218 1584.31 219.441C1600.05 224.661 1623.52 232.666 1636.32 237.016C1649.12 241.366 1664.99 246.586 1671.66 248.848L1683.53 252.677L1552.3 253.199C1468.82 253.373 1419.74 253.025 1417.61 251.807C1415.74 250.937 1390.27 238.408 1360.93 223.965C1302.12 194.905 1249.04 168.63 1244.91 166.368C1243.44 165.672 1282.65 164.976 1332.13 164.976L1422.01 164.802L1453.48 175.416ZM459.423 262.073C458.623 262.943 417.948 293.047 368.872 329.067L279.788 394.495L150.829 394.147C29.0723 393.625 22.271 393.451 28.0055 390.666C33.8733 387.882 250.716 278.256 273.387 266.597L284.722 260.681H372.739C425.55 260.507 460.09 261.203 459.423 262.073ZM614.787 262.943C613.72 264.335 588.782 294.439 559.443 329.937L506.099 394.495H400.745C334.599 394.495 296.191 393.799 297.391 392.754C298.458 391.884 338.066 361.781 385.409 325.935L471.425 260.855L544.106 260.681C606.652 260.507 616.387 260.855 614.787 262.943ZM770.417 262.595C770.15 263.813 761.482 294.091 751.347 329.589L732.81 394.495H626.789H520.768L524.769 389.622C527.036 386.838 550.774 356.734 577.713 322.629L626.656 260.507H698.936C756.148 260.507 770.951 261.029 770.417 262.595ZM942.451 326.631C951.386 362.477 958.854 392.406 958.854 393.102C958.854 393.973 911.511 394.495 853.5 394.495C795.622 394.495 748.146 393.973 748.146 393.451C748.146 392.058 780.286 263.465 781.086 261.725C781.353 261.029 814.159 260.681 853.767 260.855L926.047 261.377L942.451 326.631ZM1129.29 322.629C1156.23 356.734 1179.96 386.838 1182.23 389.622L1186.23 394.495H1080.21H974.19L955.653 329.589C945.518 294.091 936.85 263.813 936.583 262.595C936.049 261.029 950.852 260.507 1008.06 260.507H1080.34L1129.29 322.629ZM1319.06 324.195C1365.6 359.171 1405.47 389.274 1407.61 391.188C1411.61 394.321 1410.28 394.495 1306.26 394.495H1200.9L1147.56 329.937C1118.22 294.439 1093.28 264.335 1092.21 262.943C1090.61 260.855 1100.08 260.507 1162.49 260.507H1234.51L1319.06 324.195ZM1465.89 282.954C1632.99 367.523 1673.66 388.23 1678.99 390.666C1684.73 393.451 1677.79 393.625 1556.17 394.147L1427.21 394.495L1338.13 329.067C1289.05 293.047 1248.38 262.943 1247.71 262.073C1246.91 261.203 1281.18 260.507 1333.99 260.507H1421.48L1465.89 282.954Z" fill="url(#paint0_linear_2_95)" fill-opacity="0.5"/>
<defs>
<linearGradient id="paint0_linear_2_95" x1="855.833" y1="-2.49513e-05" x2="865.917" y2="581.995" gradientUnits="userSpaceOnUse">
<stop offset="0.03125" stop-color="white" stop-opacity="0"/>
<stop offset="0.338542" stop-color="white"/>
<stop offset="0.932292" stop-color="white" stop-opacity="0"/>
</linearGradient>
</defs>
</svg>
